<svg width="40" height="40" viewBox="0 0 40 40" fill="none" xmlns="http://www.w3.org/2000/svg">
<g clip-path="url(#clip0_119_44)">
<path d="M8.92127 4.35698C9.48431 3.9575 9.61687 3.17721 9.21739 2.6142C8.81791 2.05116 8.03762 1.9186 7.47461 2.31808C5.42816 3.77011 3.64496 5.5684 2.21009 7.62785C1.81544 8.19428 1.95471 8.97338 2.52114 9.36803C3.08757 9.76268 3.86669 9.62341 4.26132 9.05698C5.53129 7.23421 7.10994 5.6422 8.92127 4.35698Z" fill="#121607"/>
<path d="M32.5238 2.31808C31.9608 1.9186 31.1804 2.05116 30.7809 2.6142C30.3814 3.17721 30.5141 3.9575 31.0771 4.35698C32.8884 5.6422 34.4671 7.23421 35.7371 9.05698C36.1318 9.62341 36.9108 9.76268 37.4773 9.36803C38.0438 8.97338 38.1829 8.19428 37.7883 7.62785C36.3534 5.5684 34.5703 3.77011 32.5238 2.31808Z" fill="#121607"/>
<path d="M18.7493 19.9999V10.8338C18.7493 10.1434 19.3089 9.58377 19.9993 9.58377C20.6896 9.58377 21.2493 10.1434 21.2493 10.8338V19.4824L25.5969 23.83C26.0851 24.3182 26.0851 25.1097 25.5969 25.5979C25.1088 26.086 24.3174 26.086 23.8293 25.5979L19.1153 20.884L18.7493 19.9999Z" fill="#121607"/>
<path d="M19.1128 20.8813L18.7493 19.9998C18.7493 20.3436 18.8881 20.6553 19.1128 20.8813Z" fill="#121607"/>
<path fill-rule="evenodd" clip-rule="evenodd" d="M3.3335 20C3.3335 10.7956 10.7951 3.33395 19.9995 3.33395C29.204 3.33395 36.6657 10.7956 36.6657 20C36.6657 29.2045 29.204 36.6662 19.9995 36.6662C10.7951 36.6662 3.3335 29.2045 3.3335 20ZM19.9995 5.83395C12.1759 5.83395 5.8335 12.1763 5.8335 20C5.8335 27.8238 12.1759 34.1662 19.9995 34.1662C27.8234 34.1662 34.1657 27.8238 34.1657 20C34.1657 12.1763 27.8234 5.83395 19.9995 5.83395Z" fill="#121607"/>
</g>
<defs>
<clipPath id="clip0_119_44">
<rect width="40" height="40" fill="white"/>
</clipPath>
</defs>
</svg>
