<svg width="40" height="40" viewBox="0 0 40 40" fill="none" xmlns="http://www.w3.org/2000/svg">
<g clip-path="url(#clip0_119_16)">
<path d="M18.677 17.3918L16.4803 19.587C16.0115 20.0554 15.2518 20.0551 14.7833 19.5863C14.3149 19.1175 14.3151 18.3578 14.7839 17.8894L19.0075 13.6683C19.2261 13.4386 19.5349 13.2954 19.877 13.2954C20.2394 13.2954 20.5642 13.4561 20.7842 13.71L24.9664 17.8892C25.4352 18.3577 25.4355 19.1175 24.9671 19.5863C24.4986 20.0551 23.7387 20.0554 23.2699 19.587L21.077 17.3954V25.5044C21.077 26.1671 20.5397 26.7044 19.877 26.7044C19.2143 26.7044 18.677 26.1671 18.677 25.5044V17.3918Z" fill="#121607"/>
<path fill-rule="evenodd" clip-rule="evenodd" d="M3.875 20C3.875 11.1642 11.0386 4.00146 19.8742 4.00146C28.7099 4.00146 35.8736 11.1642 35.8736 20C35.8736 28.8358 28.7099 35.9984 19.8742 35.9984C11.0386 35.9984 3.875 28.8358 3.875 20ZM19.8742 6.40147C12.364 6.40147 6.275 12.4898 6.275 20C6.275 27.5101 12.364 33.5984 19.8742 33.5984C27.3846 33.5984 33.4736 27.5101 33.4736 20C33.4736 12.4898 27.3846 6.40147 19.8742 6.40147Z" fill="#121607"/>
</g>
<defs>
<clipPath id="clip0_119_16">
<rect width="40" height="40" fill="white"/>
</clipPath>
</defs>
</svg>
