<svg width="40" height="40" viewBox="0 0 40 40" fill="none" xmlns="http://www.w3.org/2000/svg">
<g clip-path="url(#clip0_119_8)">
<path d="M17.6703 21.2018L25.7792 21.2018C26.442 21.2018 26.9792 20.6646 26.9792 20.0018C26.9792 19.3391 26.442 18.8018 25.7792 18.8018L17.6665 18.8018L19.8617 16.6052C20.3302 16.1365 20.33 15.3767 19.8612 14.9082C19.3924 14.4398 18.6326 14.4399 18.1641 14.9087L13.9431 19.1324C13.7134 19.3511 13.5702 19.6597 13.5702 20.0018C13.5702 20.3642 13.7308 20.689 13.9847 20.9092L18.1641 25.0914C18.6326 25.5601 19.3924 25.5604 19.8612 25.0919C20.33 24.6235 20.3302 23.8637 19.8617 23.3949L17.6703 21.2018Z" fill="#121607"/>
<path fill-rule="evenodd" clip-rule="evenodd" d="M36.2749 20.0014C36.2749 28.8373 29.1112 36 20.2756 36C11.4399 36 4.27621 28.8373 4.27621 20.0014C4.27621 11.1658 11.4399 4.00303 20.2756 4.00304C29.1112 4.00304 36.2749 11.1658 36.2749 20.0014ZM20.2756 33.6C27.7859 33.6 33.8749 27.5117 33.8749 20.0014C33.8749 12.4914 27.7859 6.40304 20.2756 6.40303C12.7653 6.40303 6.67621 12.4914 6.67621 20.0014C6.67621 27.5117 12.7653 33.6 20.2756 33.6Z" fill="#121607"/>
</g>
<defs>
<clipPath id="clip0_119_8">
<rect width="40" height="40" fill="white"/>
</clipPath>
</defs>
</svg>
