<svg width="40" height="40" viewBox="0 0 40 40" fill="none" xmlns="http://www.w3.org/2000/svg">
<path d="M18.8076 33.5821C19.0277 33.8392 19.3546 34.0023 19.7196 34.0023H19.7223C20.0301 34.0029 20.3381 33.8858 20.573 33.6511L30.1733 24.0575C30.6421 23.589 30.6423 22.8292 30.1738 22.3604C29.7055 21.8916 28.9456 21.8914 28.4768 22.3599L20.9196 29.9117V7.20003C20.9196 6.53729 20.3823 6.00003 19.7196 6.00003C19.0568 6.00003 18.5196 6.53729 18.5196 7.20003V29.9013L10.9733 22.3599C10.5045 21.8914 9.74473 21.8916 9.27625 22.3604C8.80777 22.8292 8.80801 23.589 9.27678 24.0575L18.8076 33.5821Z" fill="#121607"/>
</svg>
