<svg width="40" height="40" viewBox="0 0 40 40" fill="none" xmlns="http://www.w3.org/2000/svg">
<g clip-path="url(#clip0_118_2)">
<path d="M22.3297 18.7982H14.2208C13.558 18.7982 13.0208 19.3354 13.0208 19.9982C13.0208 20.6609 13.558 21.1982 14.2208 21.1982H22.3335L20.1383 23.3948C19.6698 23.8635 19.67 24.6233 20.1388 25.0918C20.6076 25.5602 21.3674 25.5601 21.8359 25.0913L26.0569 20.8676C26.2866 20.6489 26.4298 20.3402 26.4298 19.9982C26.4298 19.6358 26.2692 19.311 26.0153 19.0908L21.8359 14.9086C21.3674 14.4399 20.6076 14.4396 20.1388 14.9081C19.67 15.3765 19.6698 16.1362 20.1383 16.605L22.3297 18.7982Z" fill="#121607"/>
<path fill-rule="evenodd" clip-rule="evenodd" d="M3.7251 19.9986C3.7251 11.1627 10.8888 4 19.7244 4C28.5601 4 35.7238 11.1627 35.7238 19.9986C35.7238 28.8342 28.5601 35.997 19.7244 35.997C10.8888 35.997 3.7251 28.8342 3.7251 19.9986ZM19.7244 6.4C12.2141 6.4 6.1251 12.4883 6.1251 19.9986C6.1251 27.5086 12.2141 33.597 19.7244 33.597C27.2347 33.597 33.3238 27.5086 33.3238 19.9986C33.3238 12.4883 27.2347 6.4 19.7244 6.4Z" fill="#121607"/>
</g>
<defs>
<clipPath id="clip0_118_2">
<rect width="40" height="40" fill="white"/>
</clipPath>
</defs>
</svg>
