<svg width="40" height="40" viewBox="0 0 40 40" fill="none" xmlns="http://www.w3.org/2000/svg">
<g clip-path="url(#clip0_116_16)">
<path d="M18.8076 9.42008C19.0277 9.16298 19.3546 9.00003 19.7196 9.00003H19.7223C20.0301 8.99942 20.3381 9.11648 20.573 9.3512L30.1733 18.9448C30.6421 19.4133 30.6423 20.173 30.1738 20.6418C29.7055 21.1106 28.9456 21.1109 28.4768 20.6424L20.9196 13.0905V35.8023C20.9196 36.465 20.3823 37.0023 19.7196 37.0023C19.0568 37.0023 18.5196 36.465 18.5196 35.8023V13.1009L10.9733 20.6424C10.5045 21.1109 9.74473 21.1106 9.27625 20.642C8.80777 20.1732 8.80801 19.4133 9.27678 18.9448L18.8076 9.42008Z" fill="#0E1105"/>
</g>
<defs>
<clipPath id="clip0_116_16">
<rect width="40" height="40" fill="white"/>
</clipPath>
</defs>
</svg>
