<svg width="40" height="40" viewBox="0 0 40 40" fill="none" xmlns="http://www.w3.org/2000/svg">
<g clip-path="url(#clip0_116_23)">
<path d="M33.7267 20.0303C33.7191 20.327 33.6022 20.6214 33.3759 20.8478L23.7823 30.4481C23.3139 30.9169 22.554 30.9172 22.0852 30.4487C21.6166 29.9802 21.6163 29.2206 22.0847 28.7518L29.6374 21.1937H6.92511C6.26236 21.1937 5.72511 20.6564 5.7251 19.9937C5.7251 19.331 6.26236 18.7937 6.9251 18.7937H29.6254L22.0847 11.2482C21.6163 10.7794 21.6164 10.0196 22.0852 9.55112C22.554 9.08264 23.3139 9.08288 23.7823 9.55167L33.3009 19.0764C33.5617 19.2964 33.7273 19.6257 33.7273 19.9937C33.7273 20.006 33.7271 20.0182 33.7267 20.0303Z" fill="#121607"/>
</g>
<defs>
<clipPath id="clip0_116_23">
<rect width="40" height="40" fill="white"/>
</clipPath>
</defs>
</svg>
