<svg width="40" height="40" viewBox="0 0 40 40" fill="none" xmlns="http://www.w3.org/2000/svg">
<g clip-path="url(#clip0_116_21)">
<path d="M5.72487 19.9969C5.72418 20.3047 5.84124 20.6129 6.07604 20.8478L15.6696 30.4481C16.1381 30.9169 16.8979 30.9172 17.3667 30.4487C17.8355 29.9802 17.8357 29.2206 17.3672 28.7518L9.81455 21.1937H32.5271C33.1898 21.1937 33.7271 20.6564 33.7271 19.9937C33.7271 19.331 33.1898 18.7937 32.5271 18.7937H9.82655L17.3672 11.2482C17.8357 10.7794 17.8355 10.0196 17.3667 9.55112C16.8979 9.08264 16.1381 9.08288 15.6697 9.55167L6.15013 19.0772C5.89001 19.2974 5.72485 19.6262 5.72485 19.9937L5.72487 19.9969Z" fill="#121607"/>
</g>
<defs>
<clipPath id="clip0_116_21">
<rect width="40" height="40" fill="white"/>
</clipPath>
</defs>
</svg>
