<svg width="40" height="40" viewBox="0 0 40 40" fill="none" xmlns="http://www.w3.org/2000/svg">
<g clip-path="url(#clip0_119_12)">
<path d="M18.802 22.8834L16.6053 20.6882C16.1365 20.2197 15.3768 20.2199 14.9083 20.6887C14.4399 21.1575 14.4401 21.9173 14.9089 22.3858L19.1325 26.6068C19.3513 26.8365 19.6599 26.9797 20.002 26.9797C20.3644 26.9797 20.6892 26.8191 20.9092 26.5651L25.0914 22.3858C25.5602 21.9173 25.5605 21.1575 25.0921 20.6887C24.6236 20.2199 23.8637 20.2197 23.3949 20.6882L21.202 22.8797L21.202 14.7706C21.202 14.1079 20.6647 13.5706 20.002 13.5706C19.3393 13.5706 18.802 14.1079 18.802 14.7706L18.802 22.8834Z" fill="#121607"/>
<path fill-rule="evenodd" clip-rule="evenodd" d="M19.9986 36.2748C11.1627 36.2748 4 29.1112 4 20.2755C4 11.4398 11.1627 4.27615 19.9986 4.27615C28.8342 4.27615 35.997 11.4398 35.997 20.2755C35.997 29.1112 28.8342 36.2748 19.9986 36.2748ZM6.4 20.2755C6.4 27.7859 12.4883 33.8748 19.9986 33.8748C27.5086 33.8748 33.597 27.7859 33.597 20.2755C33.597 12.7653 27.5086 6.67615 19.9986 6.67615C12.4883 6.67615 6.4 12.7653 6.4 20.2755Z" fill="#121607"/>
</g>
<defs>
<clipPath id="clip0_119_12">
<rect width="40" height="40" fill="white"/>
</clipPath>
</defs>
</svg>
