<svg width="40" height="40" viewBox="0 0 40 40" fill="none" xmlns="http://www.w3.org/2000/svg">
<g clip-path="url(#clip0_119_42)">
<path d="M25.8452 17.5409C26.3334 17.0527 26.3334 16.2613 25.8452 15.7731C25.357 15.285 24.5655 15.285 24.0774 15.7731L18.2749 21.5757L15.9227 19.2236C15.4345 18.7354 14.6431 18.7354 14.1549 19.2236C13.6668 19.7117 13.6668 20.5032 14.1549 20.9912L17.391 24.2274C17.8792 24.7156 18.6705 24.7154 19.1587 24.2274L25.8452 17.5409Z" fill="#121607"/>
<path fill-rule="evenodd" clip-rule="evenodd" d="M19.9999 3.33322C10.7952 3.33322 3.33325 10.7951 3.33325 19.9999C3.33325 29.2046 10.7952 36.6666 19.9999 36.6666C29.2046 36.6666 36.6666 29.2046 36.6666 19.9999C36.6666 10.7951 29.2046 3.33322 19.9999 3.33322ZM5.83325 19.9999C5.83325 12.1759 12.1759 5.83322 19.9999 5.83322C27.8239 5.83322 34.1666 12.1759 34.1666 19.9999C34.1666 27.8239 27.8239 34.1666 19.9999 34.1666C12.1759 34.1666 5.83325 27.8239 5.83325 19.9999Z" fill="#121607"/>
</g>
<defs>
<clipPath id="clip0_119_42">
<rect width="40" height="40" fill="white"/>
</clipPath>
</defs>
</svg>
