<svg width="40" height="40" viewBox="0 0 40 40" fill="none" xmlns="http://www.w3.org/2000/svg">
<g clip-path="url(#clip0_119_115)">
<path fill-rule="evenodd" clip-rule="evenodd" d="M10.6447 16.6393C10.7613 11.572 14.9057 7.5 20.0011 7.5C24.0929 7.5 27.5691 10.125 28.8418 13.7816C33.2858 14.5429 36.6668 18.4127 36.6668 23.0732C36.6668 28.2797 32.4459 32.5005 27.2394 32.5005H11.2762C6.88944 32.5005 3.33325 28.9443 3.33325 24.5575C3.33325 20.3833 6.55317 16.9612 10.6447 16.6393ZM20.0011 10C16.213 10 13.1422 13.0708 13.1422 16.8588V17.8647C13.1422 18.555 12.5825 19.1147 11.8922 19.1147H11.2762C8.27015 19.1147 5.83325 21.5515 5.83325 24.5575C5.83325 27.5637 8.27015 30.0005 11.2762 30.0005H27.2394C31.0653 30.0005 34.1668 26.899 34.1668 23.0732C34.1668 19.4295 31.3529 16.4419 27.7806 16.1666C27.2423 16.1251 26.7913 15.7426 26.6628 15.2181C25.9276 12.2218 23.2223 10 20.0011 10Z" fill="#121607"/>
</g>
<defs>
<clipPath id="clip0_119_115">
<rect width="40" height="40" fill="white"/>
</clipPath>
</defs>
</svg>
