<svg width="40" height="40" viewBox="0 0 40 40" fill="none" xmlns="http://www.w3.org/2000/svg">
<g clip-path="url(#clip0_119_51)">
<path d="M25.0504 7.2384C25.5385 7.7264 25.5389 8.51785 25.0509 9.00616L21.7672 12.2919L25.0509 15.5779C25.5389 16.0662 25.5385 16.8577 25.0502 17.3457C24.5619 17.8337 23.7705 17.8333 23.2825 17.345L19.1159 13.1754C18.628 12.6873 18.628 11.8963 19.1159 11.4083L23.2825 7.23895C23.7705 6.75065 24.562 6.7504 25.0504 7.2384Z" fill="#121607"/>
<path d="M30.3663 7.2384C29.8781 7.7264 29.8778 8.51785 30.3658 9.00616L33.6495 12.2919L30.3658 15.5779C29.8778 16.0662 29.8781 16.8577 30.3665 17.3457C30.8548 17.8337 31.6461 17.8333 32.1341 17.345L36.3008 13.1754C36.7886 12.6873 36.7886 11.8963 36.3008 11.4083L32.1341 7.23895C31.6461 6.75065 30.8546 6.7504 30.3663 7.2384Z" fill="#121607"/>
<path d="M36.6666 25.5732V19.4369C35.9541 20.3291 35.1111 21.1124 34.1666 21.7581V25.5732C34.1666 26.2636 33.6069 26.8232 32.9166 26.8232H7.08325C6.3929 26.8232 5.83325 26.2636 5.83325 25.5732V11.2502C5.83325 10.5599 6.3929 10.0002 7.08325 10.0002H16.4791C16.6564 9.12671 16.9331 8.28928 17.2969 7.50024H7.08325C5.01219 7.50024 3.33325 9.17918 3.33325 11.2502V25.5732C3.33325 27.6442 5.01219 29.3232 7.08325 29.3232H18.7499V32.0836H15C14.3096 32.0836 13.75 32.6432 13.75 33.3336C13.75 34.0239 14.3096 34.5836 15 34.5836H24.9999C25.6903 34.5836 26.2499 34.0239 26.2499 33.3336C26.2499 32.6432 25.6903 32.0836 24.9999 32.0836H21.2499V29.3232H32.9166C34.9876 29.3232 36.6666 27.6442 36.6666 25.5732Z" fill="#121607"/>
</g>
<defs>
<clipPath id="clip0_119_51">
<rect width="40" height="40" fill="white"/>
</clipPath>
</defs>
</svg>
