<svg width="40" height="40" viewBox="0 0 40 40" fill="none" xmlns="http://www.w3.org/2000/svg">
<g clip-path="url(#clip0_119_46)">
<path fill-rule="evenodd" clip-rule="evenodd" d="M17.9643 29.2614C17.646 29.2614 17.3408 29.1348 17.1158 28.9099L16.8332 28.6273L14.2879 31.1726C13.4904 31.9702 12.3315 32.186 11.3383 31.8201C11.2921 31.8921 11.238 31.9596 11.1766 32.0211L10.5945 32.6032C10.309 32.8886 9.89917 33.0115 9.50378 32.9299L5.75154 32.1568C5.31931 32.0676 4.97086 31.7486 4.84421 31.3257C4.71757 30.903 4.83315 30.4449 5.1452 30.1329L7.2168 28.0612C7.27909 27.999 7.3465 27.9449 7.4177 27.8993C7.05208 26.9062 7.26798 25.7475 8.06539 24.95L10.6107 22.4048L10.3275 22.1216C9.85891 21.6531 9.85891 20.8932 10.3275 20.4246L23.904 6.84812C25.3099 5.44223 27.5892 5.44223 28.9952 6.84812L32.3892 10.2422C33.7952 11.6481 33.7952 13.9275 32.3892 15.3334L18.8128 28.9099C18.5878 29.1348 18.2825 29.2614 17.9643 29.2614ZM15.1362 26.9302L12.3077 24.1019L9.76245 26.6472C9.60624 26.8033 9.60624 27.0566 9.76245 27.2128L12.0252 29.4756C12.1814 29.6318 12.4347 29.6318 12.5909 29.4756L15.1362 26.9302ZM17.682 26.0814L17.704 26.1038L17.9643 26.3643L30.6923 13.6363C31.1609 13.1677 31.1609 12.4079 30.6923 11.9393L27.298 8.54517C26.8294 8.07655 26.0697 8.07655 25.6011 8.54517L12.8731 21.2731L13.134 21.5339L13.1566 21.556L17.682 26.0814Z" fill="#121607"/>
</g>
<defs>
<clipPath id="clip0_119_46">
<rect width="40" height="40" fill="white"/>
</clipPath>
</defs>
</svg>
