<svg width="40" height="40" viewBox="0 0 40 40" fill="none" xmlns="http://www.w3.org/2000/svg">
<g clip-path="url(#clip0_119_96)">
<path d="M7.60504 8.63569C9.19069 9.54036 11.1648 8.40059 11.1742 6.57505H13.574C13.5833 8.40065 15.5575 9.54044 17.1432 8.63572L18.3416 10.7114C19.0099 10.3386 19.8077 10.0926 20.6202 9.94719C20.5709 9.80327 20.507 9.66198 20.428 9.52526L19.2152 7.42449C18.5597 6.28926 17.1126 5.89609 15.9738 6.53972C15.9618 5.23169 14.8978 4.17505 13.5869 4.17505H11.1612C9.85035 4.17505 8.78632 5.23166 8.77429 6.53963C7.63555 5.89606 6.18848 6.28923 5.53307 7.42443L4.32019 9.52521C3.66477 10.6604 4.04784 12.1103 5.17461 12.7747C4.04784 13.4391 3.6648 14.8889 4.32021 16.024L5.5331 18.1248C6.18851 19.26 7.63555 19.6532 8.7743 19.0096C8.78339 19.9991 9.39446 20.8447 10.259 21.1978C10.2544 20.2847 10.4846 19.3581 10.9741 18.5103L11.0826 18.3224C10.6757 16.8949 8.99182 16.1224 7.60506 16.9136L6.40517 14.8353C7.9815 13.9144 7.98147 11.6348 6.40514 10.714L7.60504 8.63569Z" fill="#121607"/>
<path d="M12.3744 15.175C13.6999 15.175 14.7744 14.1005 14.7744 12.775C14.7744 11.4495 13.6999 10.375 12.3744 10.375C11.0489 10.375 9.97437 11.4495 9.97437 12.775C9.97437 14.1005 11.0489 15.175 12.3744 15.175Z" fill="#121607"/>
<path fill-rule="evenodd" clip-rule="evenodd" d="M19.425 24.1772C19.425 21.4689 21.6207 19.2732 24.329 19.2732C27.0375 19.2732 29.233 21.4689 29.233 24.1772C29.233 26.8857 27.0375 29.0812 24.329 29.0812C21.6207 29.0812 19.425 26.8857 19.425 24.1772ZM24.329 21.6732C22.9462 21.6732 21.825 22.7943 21.825 24.1772C21.825 25.5601 22.9462 26.6812 24.329 26.6812C25.7121 26.6812 26.833 25.5601 26.833 24.1772C26.833 22.7943 25.7121 21.6732 24.329 21.6732Z" fill="#121607"/>
<path fill-rule="evenodd" clip-rule="evenodd" d="M13.0528 28.6441C12.2427 27.2409 12.7242 25.4471 14.1267 24.6373C14.4824 24.4319 14.4816 23.9193 14.1273 23.7148C12.7247 22.905 12.2442 21.1116 13.054 19.709L14.824 16.6433C15.6337 15.2407 17.4271 14.7605 18.8293 15.5701C19.184 15.7749 19.6272 15.5187 19.6272 15.1096C19.6272 13.4904 20.9399 12.1777 22.5591 12.1777H26.0994C27.7192 12.1777 29.0317 13.4911 29.0317 15.1102C29.0317 15.5202 29.4754 15.7757 29.8295 15.5713C31.2317 14.7617 33.0247 15.2422 33.8343 16.6444L35.605 19.7113C36.4144 21.1133 35.9341 22.9061 34.532 23.7156C34.1784 23.9197 34.1776 24.4314 34.5327 24.6364C35.9346 25.4458 36.416 27.2391 35.6061 28.6418L33.836 31.7076C33.0263 33.1101 31.2328 33.5906 29.8303 32.7809C29.4756 32.5761 29.0317 32.8321 29.0317 33.2421C29.0317 34.8617 27.7189 36.1749 26.0991 36.1749H22.5594C20.94 36.1749 19.6272 34.8621 19.6272 33.2428C19.6272 32.8337 19.1839 32.5769 18.8285 32.782C17.4261 33.5917 15.6321 33.1116 14.8222 31.7087L13.0528 28.6441ZM15.3267 26.7157C15.0714 26.8631 14.9842 27.1895 15.1312 27.4441L16.9007 30.5087C17.0476 30.7633 17.3735 30.8508 17.6285 30.7036C19.5828 29.5753 22.0272 30.9849 22.0272 33.2428C22.0272 33.5367 22.2655 33.7749 22.5594 33.7749H26.0991C26.3932 33.7749 26.6317 33.5364 26.6317 33.2421C26.6317 30.985 29.0752 29.5737 31.0303 30.7025C31.285 30.8495 31.6106 30.7621 31.7576 30.5076L33.5277 27.4418C33.6744 27.1876 33.5874 26.862 33.3327 26.7148C31.3791 25.5869 31.377 22.7658 33.3321 21.6372C33.5861 21.4905 33.6733 21.1655 33.5266 20.9113L31.7559 17.8444C31.609 17.59 31.2837 17.5029 31.0295 17.6498C29.0744 18.7785 26.6317 17.3666 26.6317 15.1102C26.6317 14.8161 26.3932 14.5777 26.0994 14.5777L22.5591 14.5777C22.2653 14.5777 22.0272 14.8158 22.0272 15.1096C22.0272 17.3668 19.5836 18.7769 17.6293 17.6485C17.3748 17.5015 17.0493 17.5889 16.9024 17.8433L15.1324 20.909C14.9854 21.1636 15.0726 21.4892 15.3273 21.6362C17.2829 22.7653 17.281 25.5874 15.3267 26.7157Z" fill="#121607"/>
</g>
<defs>
<clipPath id="clip0_119_96">
<rect width="40" height="40" fill="white"/>
</clipPath>
</defs>
</svg>
