<svg width="40" height="40" viewBox="0 0 40 40" fill="none" xmlns="http://www.w3.org/2000/svg">
<g clip-path="url(#clip0_119_55)">
<path d="M25.6691 8.00016C20.8201 8.00016 16.6659 10.9755 14.9327 15.2002H22.4566C23.1193 15.2002 23.6566 15.7374 23.6566 16.4002C23.6566 17.0629 23.1193 17.6002 22.4566 17.6002H14.2409C14.128 18.2499 14.0691 18.9181 14.0691 19.6002C14.0691 20.2822 14.128 20.9504 14.2409 21.6002H22.4566C23.1193 21.6002 23.6566 22.1374 23.6566 22.8002C23.6566 23.4629 23.1193 24.0002 22.4566 24.0002H14.9327C16.6659 28.2248 20.8201 31.2002 25.6691 31.2002C27.1441 31.2002 28.5521 30.9254 29.8467 30.4256C30.4649 30.1867 31.1596 30.4944 31.3983 31.1126C31.6371 31.7309 31.3294 32.4256 30.7111 32.6643C29.1452 33.2691 27.4444 33.6002 25.6691 33.6002C19.4742 33.6002 14.2191 29.5766 12.3746 24.0002H8.9251C8.26236 24.0002 7.7251 23.4629 7.7251 22.8002C7.7251 22.1374 8.26236 21.6002 8.9251 21.6002H11.8109C11.7175 20.9469 11.6691 20.2792 11.6691 19.6002C11.6691 18.9211 11.7175 18.2534 11.8109 17.6002H8.9267C8.26395 17.6002 7.7267 17.0629 7.7267 16.4002C7.7267 15.7374 8.26395 15.2002 8.9267 15.2002H12.3746C14.2191 9.62374 19.4742 5.60016 25.6691 5.60016C27.4444 5.60016 29.1452 5.93117 30.7111 6.53592C31.3294 6.77467 31.6371 7.46941 31.3983 8.08765C31.1596 8.70589 30.4649 9.01352 29.8467 8.77478C28.5521 8.27485 27.1441 8.00016 25.6691 8.00016Z" fill="#121607"/>
</g>
<defs>
<clipPath id="clip0_119_55">
<rect width="40" height="40" fill="white"/>
</clipPath>
</defs>
</svg>
