<svg width="40" height="40" viewBox="0 0 40 40" fill="none" xmlns="http://www.w3.org/2000/svg">
<g clip-path="url(#clip0_119_93)">
<path fill-rule="evenodd" clip-rule="evenodd" d="M10.0375 5.45638C10.0375 4.79363 9.50019 4.25638 8.83745 4.25638C8.1747 4.25638 7.63745 4.79363 7.63745 5.45638V35.0564C7.63745 35.7192 8.1747 36.2564 8.83745 36.2564C9.50019 36.2564 10.0375 35.7192 10.0375 35.0564V25.4564H30.4374C30.8446 25.4564 31.2241 25.2499 31.4452 24.908C31.6662 24.566 31.6988 24.1353 31.5318 23.764L28.375 16.7488C28.234 16.4356 28.234 16.0771 28.375 15.7639L31.5318 8.74881C31.6988 8.37748 31.6662 7.94675 31.4452 7.60481C31.2241 7.26286 30.8446 7.05638 30.4374 7.05638H10.0375V5.45638ZM10.0375 9.45638V23.0564H28.5816L26.1864 17.7337C25.7636 16.7942 25.7636 15.7186 26.1864 14.7791L28.5816 9.45638H10.0375Z" fill="#121607"/>
</g>
<defs>
<clipPath id="clip0_119_93">
<rect width="40" height="40" fill="white"/>
</clipPath>
</defs>
</svg>
