<svg width="40" height="40" viewBox="0 0 40 40" fill="none" xmlns="http://www.w3.org/2000/svg">
<g clip-path="url(#clip0_119_166)">
<path fill-rule="evenodd" clip-rule="evenodd" d="M10.6624 4.00006C9.99967 4.00006 9.4624 4.53733 9.4624 5.20006V11.8938C9.4624 12.5566 9.99967 13.0938 10.6624 13.0938H16.6079L15.7166 32.2325C15.6211 34.2844 17.2588 36.0001 19.3127 36.0001H20.6839C22.738 36.0001 24.3756 34.2844 24.2801 32.2325L23.3889 13.0938H29.3357C29.9986 13.0938 30.5357 12.5566 30.5357 11.8938V11.6001C30.5357 7.4027 27.1332 4.00006 22.9359 4.00006H10.6624ZM20.9863 13.0938H19.0105L18.114 32.3442C18.0821 33.0282 18.6281 33.6001 19.3127 33.6001H20.6839C21.3687 33.6001 21.9145 33.0282 21.8826 32.3442L20.9863 13.0938ZM28.0572 10.6938C27.6284 8.25397 25.4986 6.40006 22.9359 6.40006H11.8624V10.6938H17.8636C17.8633 10.6938 17.8641 10.6938 17.8636 10.6938H28.0572Z" fill="#121607"/>
</g>
<defs>
<clipPath id="clip0_119_166">
<rect width="40" height="40" fill="white"/>
</clipPath>
</defs>
</svg>
