<svg width="40" height="40" viewBox="0 0 40 40" fill="none" xmlns="http://www.w3.org/2000/svg">
<g clip-path="url(#clip0_119_159)">
<path fill-rule="evenodd" clip-rule="evenodd" d="M14.3547 3.59596C17.4574 2.80738 20.5934 3.84518 22.6306 6.03043C24.1926 5.26276 26.0562 5.10961 27.8212 5.75893C30.8051 6.85668 32.5194 9.88249 32.0736 12.9083C34.0377 14.2297 35.3327 16.4744 35.3327 19.0233C35.3327 23.091 32.0352 26.3885 27.9676 26.3885H27.4971V30.415C27.4971 31.1053 28.0567 31.665 28.7471 31.665H29.5642C29.9444 31.1591 30.5494 30.832 31.2307 30.832H31.2474C32.3981 30.832 33.3307 31.7648 33.3307 32.9153C33.3307 34.066 32.3981 34.9986 31.2474 34.9986H31.2307C30.5491 34.9986 29.9437 34.6711 29.5637 34.165H28.7471C26.6761 34.165 24.9971 32.486 24.9971 30.415V26.3885H21.2471V32.9028C21.7626 33.282 22.0971 33.893 22.0971 34.582C22.0971 35.7326 21.1642 36.6653 20.0137 36.6653H19.9971C18.8464 36.6653 17.9137 35.7326 17.9137 34.582C17.9137 33.9005 18.2411 33.2953 18.7471 32.9151V26.3885H14.9971V30.415C14.9971 32.486 13.3181 34.165 11.2471 34.165H10.4309C10.0508 34.6711 9.44551 34.9986 8.76373 34.9986H8.74706C7.59646 34.9986 6.66373 34.066 6.66373 32.9153C6.66373 31.7648 7.59646 30.832 8.74706 30.832H8.76373C9.44514 30.832 10.0501 31.1591 10.4302 31.665H11.2471C11.9374 31.665 12.4971 31.1053 12.4971 30.415V26.3885H12.0265C7.95883 26.3885 4.66138 23.091 4.66138 19.0233C4.66138 16.4219 6.01021 14.1373 8.04294 12.8278C7.52389 8.65874 10.1772 4.65769 14.3547 3.59596ZM13.8081 23.8885C13.7879 23.8875 13.7675 23.887 13.7471 23.887C13.7266 23.887 13.7062 23.8875 13.686 23.8885H12.0265C9.33954 23.8885 7.16138 21.7103 7.16138 19.0233C7.16138 17.0765 8.30501 15.3941 9.96263 14.6161C10.5002 14.3638 10.7861 13.7681 10.6466 13.1909C9.88143 10.0247 11.8047 6.82353 14.9705 6.01893C17.4387 5.39159 19.9421 6.40476 21.3224 8.37829C21.5161 8.65509 21.8134 8.84176 22.1469 8.89578C22.4802 8.94979 22.8214 8.86656 23.0926 8.66503C24.1689 7.86481 25.6102 7.60934 26.9579 8.10518C29.0134 8.86139 30.0999 11.0919 29.4604 13.1594C29.2786 13.7474 29.5519 14.3804 30.1046 14.6512C31.7229 15.4441 32.8327 17.1053 32.8327 19.0233C32.8327 21.7103 30.6546 23.8885 27.9676 23.8885H26.3081C26.2879 23.8875 26.2676 23.887 26.2471 23.887C26.2266 23.887 26.2062 23.8875 26.1861 23.8885H20.0581C20.0379 23.8875 20.0176 23.887 19.9971 23.887C19.9766 23.887 19.9562 23.8875 19.9361 23.8885H13.8081Z" fill="#121607"/>
</g>
<defs>
<clipPath id="clip0_119_159">
<rect width="40" height="40" fill="white"/>
</clipPath>
</defs>
</svg>
