<svg width="40" height="40" viewBox="0 0 40 40" fill="none" xmlns="http://www.w3.org/2000/svg">
<g clip-path="url(#clip0_119_53)">
<path d="M10.4116 5.41675C8.34048 5.41675 6.66155 7.09568 6.66155 9.16675V22.7904C6.44627 23.0856 6.27188 23.4156 6.148 23.7734L4.12877 29.6067C3.28557 32.0427 5.09472 34.5834 7.67247 34.5834H16.2448V32.0834H7.67247C6.81322 32.0834 6.21017 31.2366 6.49123 30.4246L8.51047 24.5912C8.68473 24.0877 9.15895 23.7501 9.6917 23.7501H16.2448V21.2501H9.16155V9.16675C9.16155 8.4764 9.72118 7.91675 10.4116 7.91675H29.5782C30.2685 7.91675 30.8282 8.4764 30.8282 9.16675V16.2501H33.3282V9.16675C33.3282 7.09568 31.6492 5.41675 29.5782 5.41675H10.4116Z" fill="#121607"/>
<path d="M26.353 30.4166C26.353 29.6803 26.95 29.0833 27.6864 29.0833H27.703C28.4394 29.0833 29.0364 29.6803 29.0364 30.4166C29.0364 31.153 28.4394 31.75 27.703 31.75H27.6864C26.95 31.75 26.353 31.153 26.353 30.4166Z" fill="#121607"/>
<path fill-rule="evenodd" clip-rule="evenodd" d="M20.9863 22.5001C20.9863 20.4291 22.6653 18.7501 24.7363 18.7501H30.6698C32.7408 18.7501 34.4198 20.4291 34.4198 22.5001V32.9167C34.4198 34.9877 32.7408 36.6667 30.6698 36.6667H24.7363C22.6653 36.6667 20.9863 34.9877 20.9863 32.9167V22.5001ZM24.7363 21.2501C24.046 21.2501 23.4863 21.8097 23.4863 22.5001V32.9167C23.4863 33.6071 24.046 34.1667 24.7363 34.1667H30.6698C31.3602 34.1667 31.9198 33.6071 31.9198 32.9167V22.5001C31.9198 21.8097 31.3602 21.2501 30.6698 21.2501H24.7363Z" fill="#121607"/>
</g>
<defs>
<clipPath id="clip0_119_53">
<rect width="40" height="40" fill="white"/>
</clipPath>
</defs>
</svg>
