<svg width="40" height="40" viewBox="0 0 40 40" fill="none" xmlns="http://www.w3.org/2000/svg">
<g clip-path="url(#clip0_119_48)">
<path fill-rule="evenodd" clip-rule="evenodd" d="M10.0002 7.50006C7.9291 7.50006 6.25017 9.17899 6.25017 11.2501V25.0001H4.5835C4.15028 25.0001 3.74795 25.2244 3.52018 25.5929C3.29243 25.9614 3.27172 26.4216 3.46547 26.8091L5.27448 30.4271C5.9097 31.6976 7.20818 32.5001 8.62858 32.5001H31.3717C32.7922 32.5001 34.0907 31.6976 34.7258 30.4271L36.5348 26.8091C36.7287 26.4216 36.7078 25.9614 36.4802 25.5929C36.2523 25.2244 35.85 25.0001 35.4168 25.0001H33.7502V11.2501C33.7502 9.17899 32.0712 7.50006 30.0002 7.50006H10.0002ZM33.3943 27.5001H6.60605L7.51055 29.3091C7.7223 29.7326 8.15512 30.0001 8.62858 30.0001H31.3717C31.8452 30.0001 32.278 29.7326 32.4898 29.3091L33.3943 27.5001ZM31.2502 25.0001V11.2501C31.2502 10.5597 30.6905 10.0001 30.0002 10.0001H10.0002C9.30982 10.0001 8.75017 10.5597 8.75017 11.2501V25.0001H31.2502Z" fill="#121607"/>
</g>
<defs>
<clipPath id="clip0_119_48">
<rect width="40" height="40" fill="white"/>
</clipPath>
</defs>
</svg>
