<svg width="40" height="40" viewBox="0 0 40 40" fill="none" xmlns="http://www.w3.org/2000/svg">
<g clip-path="url(#clip0_140_711)">
<rect width="40" height="40" fill="black"/>
<path d="M37.1111 -2C38.4077 -2 39.6512 -1.48492 40.5681 -0.568078C41.4849 0.348767 42 1.59227 42 2.88889V37.1111C42 38.4077 41.4849 39.6512 40.5681 40.5681C39.6512 41.4849 38.4077 42 37.1111 42H2.88889C1.59227 42 0.348767 41.4849 -0.568078 40.5681C-1.48492 39.6512 -2 38.4077 -2 37.1111V2.88889C-2 1.59227 -1.48492 0.348767 -0.568078 -0.568078C0.348767 -1.48492 1.59227 -2 2.88889 -2H37.1111ZM35.8889 35.8889V22.9333C35.8889 20.8199 35.0493 18.7929 33.5549 17.2985C32.0604 15.804 30.0335 14.9644 27.92 14.9644C25.8422 14.9644 23.4222 16.2356 22.2489 18.1422V15.4289H15.4289V35.8889H22.2489V23.8378C22.2489 21.9556 23.7644 20.4156 25.6467 20.4156C26.5543 20.4156 27.4248 20.7761 28.0665 21.4179C28.7083 22.0597 29.0689 22.9301 29.0689 23.8378V35.8889H35.8889ZM7.48444 11.5911C8.5736 11.5911 9.61815 11.1584 10.3883 10.3883C11.1584 9.61815 11.5911 8.5736 11.5911 7.48444C11.5911 5.21111 9.75778 3.35333 7.48444 3.35333C6.38881 3.35333 5.33804 3.78857 4.56331 4.56331C3.78857 5.33804 3.35333 6.38881 3.35333 7.48444C3.35333 9.75778 5.21111 11.5911 7.48444 11.5911ZM10.8822 35.8889V15.4289H4.11111V35.8889H10.8822Z" fill="white"/>
</g>
<defs>
<clipPath id="clip0_140_711">
<rect width="40" height="40" fill="white"/>
</clipPath>
</defs>
</svg>
