<svg width="86" height="86" viewBox="0 0 86 86" fill="none" xmlns="http://www.w3.org/2000/svg">
<g id="Icons">
<g clip-path="url(#clip0_159_121)">
<rect width="86" height="86" rx="12.6285" fill="white"/>
<path id="LinkedIN" d="M79.7888 -4.30005C82.5766 -4.30005 85.2501 -3.19263 87.2213 -1.22142C89.1925 0.749799 90.2999 3.42334 90.2999 6.21106V79.7888C90.2999 82.5766 89.1925 85.2501 87.2213 87.2213C85.2501 89.1925 82.5766 90.2999 79.7888 90.2999H6.21106C3.42334 90.2999 0.749799 89.1925 -1.22142 87.2213C-3.19263 85.2501 -4.30005 82.5766 -4.30005 79.7888V6.21106C-4.30005 3.42334 -3.19263 0.749799 -1.22142 -1.22142C0.749799 -3.19263 3.42334 -4.30005 6.21106 -4.30005H79.7888ZM77.1611 77.1611V49.3066C77.1611 44.7626 75.356 40.4048 72.1429 37.1917C68.9298 33.9786 64.5719 32.1735 60.0279 32.1735C55.5607 32.1735 50.3577 34.9064 47.8351 39.0057V33.1721H33.1721V77.1611H47.8351V51.2512C47.8351 47.2044 51.0935 43.8934 55.1403 43.8934C57.0917 43.8934 58.9632 44.6686 60.343 46.0484C61.7229 47.4283 62.4981 49.2998 62.4981 51.2512V77.1611H77.1611ZM16.0915 24.9208C18.4332 24.9208 20.679 23.9906 22.3348 22.3348C23.9906 20.679 24.9208 18.4332 24.9208 16.0915C24.9208 11.2038 20.9792 7.20962 16.0915 7.20962C13.7359 7.20962 11.4767 8.14538 9.81106 9.81106C8.14538 11.4767 7.20962 13.7359 7.20962 16.0915C7.20962 20.9792 11.2038 24.9208 16.0915 24.9208ZM23.3967 77.1611V33.1721H8.83884V77.1611H23.3967Z" fill="#121607"/>
</g>
</g>
<defs>
<clipPath id="clip0_159_121">
<rect width="86" height="86" rx="12.6285" fill="white"/>
</clipPath>
</defs>
</svg>
