<svg width="40" height="40" viewBox="0 0 40 40" fill="none" xmlns="http://www.w3.org/2000/svg">
<g clip-path="url(#clip0_119_108)">
<path d="M24.5261 19.1929C23.1904 19.1929 21.9583 18.7502 20.968 18.0036C21.4354 17.3282 21.8053 16.5803 22.0575 15.7801C22.6922 16.4063 23.564 16.7928 24.5261 16.7928C26.4674 16.7928 28.0411 15.219 28.0411 13.2777C28.0411 11.3364 26.4674 9.76258 24.5261 9.76258C23.564 9.76258 22.6922 10.1491 22.0575 10.7753C21.8053 9.97514 21.4354 9.22725 20.968 8.55189C21.9581 7.80527 23.1904 7.36258 24.5261 7.36258C27.7928 7.36258 30.4411 10.0109 30.4411 13.2777C30.4411 16.5445 27.7928 19.1929 24.5261 19.1929Z" fill="#121607"/>
<path d="M23.6358 21.9025C24.0365 22.2991 24.3944 22.7111 24.7142 23.1305C26.8728 23.1721 28.4227 23.7028 29.5482 24.4241C30.7253 25.1785 31.5107 26.1883 32.0389 27.2268C32.5702 28.2716 32.8328 29.3308 32.9605 30.1391C33.0238 30.5404 33.0528 30.8719 33.0659 31.0983C33.0725 31.2113 33.0749 31.2975 33.076 31.3523L33.0763 31.3857L33.0765 31.41V31.418L34.2717 31.4377C33.087 31.4172 33.0766 31.4175 33.0765 31.418V31.4201C33.0667 32.0814 33.5939 32.6262 34.2555 32.6375C34.9181 32.6491 35.4646 32.1212 35.4762 31.4587L34.2856 31.438C35.4762 31.4587 35.4762 31.4593 35.4762 31.4587V31.4558L35.4763 31.4519V31.4417L35.4765 31.411C35.4765 31.386 35.4763 31.3521 35.4755 31.3097C35.4741 31.2252 35.4704 31.107 35.4619 30.9599C35.445 30.6663 35.4086 30.255 35.3312 29.7646C35.1771 28.7897 34.8558 27.4715 34.1781 26.1388C33.4973 24.7999 32.4483 23.4321 30.843 22.4035C29.2334 21.3718 27.1368 20.7278 24.4385 20.7278C23.7256 20.7278 23.0549 20.7727 22.4238 20.8579C22.8565 21.1814 23.2603 21.5305 23.6358 21.9025Z" fill="#121607"/>
<path fill-rule="evenodd" clip-rule="evenodd" d="M8.21069 13.2777C8.21069 10.0109 10.859 7.36258 14.1258 7.36258C17.3926 7.36258 20.0409 10.0109 20.0409 13.2777C20.0409 16.5445 17.3926 19.1928 14.1258 19.1928C10.859 19.1928 8.21069 16.5445 8.21069 13.2777ZM14.1258 9.76258C12.1845 9.76258 10.6107 11.3364 10.6107 13.2777C10.6107 15.219 12.1845 16.7928 14.1258 16.7928C16.0671 16.7928 17.6409 15.219 17.6409 13.2777C17.6409 11.3364 16.0671 9.76258 14.1258 9.76258Z" fill="#121607"/>
<path d="M5.40003 31.4199C5.41002 32.0812 4.88272 32.6263 4.22099 32.6378C3.55835 32.6494 3.01186 32.1215 3.00035 31.4588L4.20018 31.438C3.00035 31.4588 3.00037 31.4594 3.00035 31.4588L3.0003 31.4559L3.00026 31.4521L3.00014 31.4419L3 31.4111C2.99998 31.3862 3.00019 31.3523 3.00094 31.31C3.00245 31.2254 3.00611 31.1073 3.01461 30.9601C3.03158 30.6665 3.06792 30.2551 3.14536 29.7649C3.29936 28.7899 3.62067 27.4716 4.29837 26.139C4.9793 24.8001 6.02813 23.4324 7.63339 22.4036C9.24301 21.3721 11.3396 20.7281 14.038 20.7281C16.7363 20.7281 18.833 21.3721 20.4427 22.4036C22.0478 23.4324 23.0968 24.8001 23.7776 26.139C24.4554 27.4716 24.7766 28.7899 24.9307 29.7649C25.0082 30.2551 25.0445 30.6665 25.0614 30.9601C25.0699 31.1073 25.0736 31.2254 25.075 31.31C25.0758 31.3523 25.076 31.3862 25.076 31.4111L25.0758 31.4419V31.4521L25.0757 31.4559C25.0757 31.4566 25.0757 31.4588 23.8851 31.4382L25.0757 31.4588C25.0642 32.1215 24.5176 32.6494 23.855 32.6378C23.1934 32.6263 22.6662 32.0815 22.676 31.4202V31.4183C22.6762 31.4179 22.6866 31.4174 23.8718 31.438L22.676 31.4183V31.4103L22.6758 31.3859L22.6755 31.3524C22.6746 31.2977 22.672 31.2116 22.6654 31.0986C22.6523 30.8722 22.6234 30.5406 22.56 30.1393C22.4323 29.3311 22.1698 28.2719 21.6384 27.227C21.1102 26.1884 20.3248 25.1786 19.1477 24.4242C17.9749 23.6727 16.3411 23.1281 14.038 23.1281C11.7349 23.1281 10.1011 23.6727 8.92835 24.4242C7.75125 25.1786 6.96581 26.1884 6.43762 27.227C5.90624 28.2719 5.64363 29.3311 5.51599 30.1393C5.45259 30.5406 5.4237 30.8722 5.41061 31.0986C5.4041 31.2116 5.40154 31.2977 5.40058 31.3524C5.40008 31.3798 5.4 31.3993 5.4 31.4103L5.40003 31.4199Z" fill="#121607"/>
</g>
<defs>
<clipPath id="clip0_119_108">
<rect width="40" height="40" fill="white"/>
</clipPath>
</defs>
</svg>
