<svg width="40" height="40" viewBox="0 0 40 40" fill="none" xmlns="http://www.w3.org/2000/svg">
<g clip-path="url(#clip0_119_103)">
<path fill-rule="evenodd" clip-rule="evenodd" d="M21.2766 13.2981C22.7768 11.7978 25.2093 11.7978 26.7095 13.2981C28.2098 14.7984 28.2098 17.2308 26.7095 18.7311C25.2093 20.2313 22.7768 20.2313 21.2766 18.7311C19.7763 17.2308 19.7763 14.7984 21.2766 13.2981ZM24.9418 15.0659C24.4178 14.5419 23.5683 14.5419 23.0443 15.0659C22.5203 15.5898 22.5203 16.4393 23.0443 16.9633C23.5683 17.4873 24.4178 17.4873 24.9418 16.9633C25.4656 16.4393 25.4656 15.5898 24.9418 15.0659Z" fill="#121607"/>
<path fill-rule="evenodd" clip-rule="evenodd" d="M34.3693 6.73858C34.3034 6.1603 33.8471 5.70398 33.2689 5.63803C27.0917 4.9336 20.6578 6.95061 15.917 11.6914C14.8028 12.8055 13.8389 14.0135 13.0253 15.29C10.2967 15.3976 7.59987 16.493 5.51668 18.5761C4.6748 19.4181 3.99293 20.3621 3.47265 21.3695C3.25232 21.796 3.2958 22.3111 3.58452 22.6948C3.87325 23.0783 4.3562 23.2628 4.8271 23.1691C6.80148 22.7763 8.86735 22.971 10.7465 23.7518L16.2496 29.2548C17.0308 31.1346 17.2251 33.2013 16.8319 35.1765C16.7381 35.6473 16.9223 36.1303 17.3059 36.4191C17.6894 36.708 18.2046 36.7515 18.6313 36.5313C19.6392 36.0108 20.5841 35.3286 21.4266 34.4861C23.5089 32.4038 24.6042 29.7083 24.7128 26.9808C25.9908 26.1666 27.2001 25.2018 28.3154 24.0866C33.0553 19.3468 35.0724 12.9145 34.3693 6.73858ZM22.0131 28.435C21.0304 28.875 20.0209 29.2361 18.9943 29.5185C19.3194 30.6046 19.4964 31.7256 19.5249 32.8495C19.5699 32.8063 19.6146 32.7626 19.6588 32.7183C20.8801 31.4971 21.6649 30.0047 22.0131 28.435ZM10.4862 21.0081C10.7689 19.9815 11.1304 18.9718 11.5707 17.989C9.99988 18.337 8.50642 19.122 7.28445 20.344C7.24062 20.3878 7.19733 20.432 7.15463 20.4765C8.27865 20.5053 9.39987 20.6825 10.4862 21.0081ZM17.6848 13.4591C21.6058 9.53818 26.8381 7.72923 31.9728 8.03418C32.2768 13.1678 30.4678 18.3986 26.5476 22.3188C24.0376 24.8288 20.9928 26.4716 17.7808 27.2505L12.7537 22.2235C13.5327 19.0123 15.1754 15.9684 17.6848 13.4591Z" fill="#121607"/>
<path fill-rule="evenodd" clip-rule="evenodd" d="M5.04999 33.7501C5.05001 33.7502 5.05001 33.7504 6.29919 33.7051L5.04999 33.7501C5.07372 34.4049 5.59909 34.9306 6.25389 34.9542L6.29919 33.7051C6.25389 34.9542 6.25369 34.9542 6.25389 34.9542L6.25599 34.9544L6.25939 34.9546L6.27002 34.9549L6.30609 34.9559C6.33654 34.9567 6.37959 34.9577 6.43377 34.9586C6.54202 34.9602 6.69522 34.9612 6.88129 34.9592C7.25146 34.9552 7.76116 34.9386 8.31047 34.8872C8.85367 34.8366 9.47032 34.7487 10.0419 34.5916C10.5771 34.4444 11.2454 34.1919 11.7321 33.7051C13.2324 32.2049 13.2324 29.7724 11.7321 28.2722C10.2319 26.7719 7.79946 26.7719 6.29919 28.2722C5.81242 28.7589 5.55989 29.4272 5.41271 29.9624C5.25556 30.5341 5.16777 31.1506 5.11701 31.6939C5.06567 32.2432 5.04907 32.7529 5.04504 33.1231C5.04301 33.3091 5.04412 33.4622 5.04581 33.5706C5.04664 33.6247 5.04762 33.6677 5.04842 33.6982L5.04947 33.7342L5.04981 33.7449L5.04999 33.7501ZM8.06696 30.0399C8.59091 29.5161 9.44041 29.5161 9.96436 30.0399C10.4883 30.5639 10.4883 31.4134 9.96436 31.9374C9.96451 31.9372 9.96461 31.9371 9.96436 31.9374C9.96099 31.9402 9.92216 31.9742 9.81919 32.0239C9.71179 32.0757 9.56571 32.1297 9.37907 32.1811C9.00277 32.2846 8.54542 32.3544 8.07786 32.3982C7.90306 32.4146 7.73164 32.4267 7.56849 32.4359C7.57759 32.2727 7.58982 32.1012 7.60616 31.9264C7.64986 31.4589 7.71979 31.0016 7.82324 30.6252C7.87457 30.4386 7.92861 30.2926 7.98041 30.1851C8.03007 30.0821 8.06401 30.0432 8.06696 30.0399C8.06717 30.0397 8.06711 30.0397 8.06696 30.0399Z" fill="#121607"/>
</g>
<defs>
<clipPath id="clip0_119_103">
<rect width="40" height="40" fill="white"/>
</clipPath>
</defs>
</svg>
