<svg width="40" height="40" viewBox="0 0 40 40" fill="none" xmlns="http://www.w3.org/2000/svg">
<g clip-path="url(#clip0_119_123)">
<path fill-rule="evenodd" clip-rule="evenodd" d="M18.7499 12.5528V10H16.6666C15.9762 10 15.4166 9.44035 15.4166 8.75C15.4166 8.05965 15.9762 7.5 16.6666 7.5H23.3333C24.0236 7.5 24.5833 8.05965 24.5833 8.75C24.5833 9.44035 24.0236 10 23.3333 10H21.2499V12.5528C28.7189 13.1869 34.5833 19.4503 34.5833 27.0833V30H35.4166C36.1069 30 36.6666 30.5597 36.6666 31.25C36.6666 31.9403 36.1069 32.5 35.4166 32.5H4.58325C3.8929 32.5 3.33325 31.9403 3.33325 31.25C3.33325 30.5597 3.8929 30 4.58325 30H5.41659V27.0833C5.41659 19.4503 11.2809 13.1869 18.7499 12.5528ZM7.91659 30H32.0833V27.0833C32.0833 20.4098 26.6734 15 19.9999 15C13.3265 15 7.91659 20.4098 7.91659 27.0833V30Z" fill="#121607"/>
</g>
<defs>
<clipPath id="clip0_119_123">
<rect width="40" height="40" fill="white"/>
</clipPath>
</defs>
</svg>
