<svg width="40" height="40" viewBox="0 0 40 40" fill="none" xmlns="http://www.w3.org/2000/svg">
<g clip-path="url(#clip0_119_120)">
<path fill-rule="evenodd" clip-rule="evenodd" d="M26.294 10.96C26.294 14.784 23.19 17.904 19.35 17.904L19.334 17.888C15.5099 17.888 12.3899 14.768 12.3899 10.944C12.3899 7.12 15.5259 4 19.35 4C23.174 4 26.294 7.136 26.294 10.96ZM23.894 10.944C23.894 8.448 21.862 6.4 19.35 6.4C16.854 6.4 14.8059 8.448 14.8059 10.944C14.8059 13.44 16.854 15.488 19.35 15.488C21.846 15.488 23.894 13.44 23.894 10.944Z" fill="#121607"/>
<path d="M19.2377 20.3033C23.5097 20.3033 26.8537 21.5033 29.1737 23.8713V23.8553C32.4483 27.193 32.4383 31.6102 32.4377 31.8951V31.9033C32.4217 32.5593 31.8937 33.0873 31.2377 33.0873H31.2217C30.5497 33.0713 30.0377 32.5273 30.0377 31.8713C30.0377 31.7913 30.0377 28.1433 27.4457 25.5193C25.5897 23.6473 22.8217 22.6873 19.2377 22.6873C15.6536 22.6873 12.8856 23.6473 11.0296 25.5193C8.43764 28.1593 8.43764 31.8393 8.43764 31.8713C8.43764 32.5273 7.90964 33.0873 7.25364 33.0873C6.67764 33.1193 6.03764 32.5753 6.03764 31.9193L6.03762 31.9118C6.03698 31.6434 6.02644 27.2097 9.30164 23.8713C11.6216 21.5033 14.9656 20.3033 19.2377 20.3033Z" fill="#121607"/>
</g>
<defs>
<clipPath id="clip0_119_120">
<rect width="40" height="40" fill="white"/>
</clipPath>
</defs>
</svg>
