<svg width="40" height="40" viewBox="0 0 40 40" fill="none" xmlns="http://www.w3.org/2000/svg">
<g clip-path="url(#clip0_119_163)">
<path fill-rule="evenodd" clip-rule="evenodd" d="M9.2001 6C7.21187 6 5.6001 7.61178 5.6001 9.6V30.4C5.6001 32.3882 7.21187 34 9.2001 34H30.0001C31.9883 34 33.6001 32.3882 33.6001 30.4V16C33.6001 14.0118 31.9883 12.4 30.0001 12.4H29.6001V9.6C29.6001 7.61178 27.9883 6 26.0001 6H9.2001ZM27.2001 12.4V9.6C27.2001 8.93726 26.6628 8.4 26.0001 8.4H9.2001C8.53736 8.4 8.0001 8.93726 8.0001 9.6V12.4H27.2001ZM8.0001 14.8V30.4C8.0001 31.0627 8.53736 31.6 9.2001 31.6H30.0001C30.6628 31.6 31.2001 31.0627 31.2001 30.4V16C31.2001 15.3373 30.6628 14.8 30.0001 14.8H8.0001Z" fill="#121607"/>
</g>
<defs>
<clipPath id="clip0_119_163">
<rect width="40" height="40" fill="white"/>
</clipPath>
</defs>
</svg>
